<svg width="164" height="844" style="opacity: 0.6;" viewBox="0 0 164 844" fill="none" xmlns="http://www.w3.org/2000/svg">
<path fill-rule="evenodd" clip-rule="evenodd" d="M98.7359 844H72.069C72.069 844 10.9859 750.457 25.7359 703.333C40.4859 656.21 91.9442 616.623 104.236 569.5C116.528 522.377 86.4026 463.123 66.7359 416C47.0692 368.877 24.3192 328.457 29.2359 281.333C34.1526 234.21 104.236 187.79 118.986 140.667C133.736 93.5434 79.4439 23.9133 72.0689 0H163.236V23.21C163.236 47.1234 163.236 93.5434 163.236 140.667C163.236 187.79 163.236 234.21 163.236 281.333C163.236 328.457 163.236 374.877 163.236 422C163.236 469.123 163.236 515.543 163.236 562.667C163.236 609.79 163.236 656.21 163.236 703.333C163.236 750.457 163.236 796.877 163.236 820.79V844H98.7359Z" fill="#F3CF0E"/>
<path fill-rule="evenodd" clip-rule="evenodd" d="M21.569 0C42.7533 17.9734 85.7467 70.3957 94.2204 105.594C103.224 140.791 79.3914 175.989 79.3914 211.187C79.3914 246.385 103.224 281.583 97.398 316.781C91.5723 351.979 55.5592 387.177 31.7269 421.626C7.8947 456.823 -3.75662 492.021 11.0723 527.219C25.9013 562.417 67.7401 597.615 70.3881 632.813C73.5658 668.011 33.0461 706.302 15.5692 741.5C-2.43742 776.698 -9.93079 806 21.5691 844H163.069V826.027C163.069 808.802 163.069 773.604 163.069 738.406C163.069 703.209 163.069 668.011 163.069 632.813C163.069 597.615 163.069 562.417 163.069 527.219C163.069 492.021 163.069 456.823 163.069 421.626C163.069 387.177 163.069 351.979 163.069 316.781C163.069 281.583 163.069 246.385 163.069 211.187C163.069 175.989 163.069 140.791 163.069 105.594C163.069 70.3957 163.069 35.1979 163.069 17.2245V0L21.569 0Z" fill="#F3CF0E" fill-opacity="0.4"/>
</svg>
