<svg width="849" height="2807" viewBox="0 0 849 2807" fill="none" style="opacity: 0.6;" xmlns="http://www.w3.org/2000/svg">
<path fill-rule="evenodd" clip-rule="evenodd" d="M137 0C237.5 70.5 432.684 236.438 478 353.5C526.148 470.562 400.57 585.31 400.57 702.373C400.57 819.435 528.02 936.497 496.866 1053.56C465.711 1170.62 273.119 1287.68 145.668 1402.25C18.2178 1519.32 -44.0914 1636.38 35.2113 1753.44C114.514 1870.5 338.261 1987.57 352.422 2104.63C369.415 2221.69 172.527 2378.94 79.0632 2496C-17.2328 2613.06 72.5632 2772 137.563 2807H848.063L848.063 2747.22C848.063 2689.94 848.063 2572.88 848.063 2455.81C848.063 2338.75 848.063 2221.69 848.063 2104.63C848.063 1987.57 848.063 1870.5 848.063 1753.44C848.063 1636.38 848.063 1519.32 848.063 1402.25C848.063 1287.68 848.063 1170.62 848.063 1053.56C848.063 936.497 848.063 819.435 848.063 702.373C848.063 585.31 848.063 468.248 848.063 351.186C848.063 234.124 848.063 117.062 848.063 57.2857V0L137 0Z" fill="#F3CF0E" fill-opacity="0.4"/>
<path fill-rule="evenodd" clip-rule="evenodd" d="M409.063 2807C343.063 2747 135.908 2495.89 224.927 2339.17C313.947 2182.44 491.985 2028.06 566.168 1871.33C640.351 1714.61 610.678 1560.22 491.985 1403.5C373.293 1246.78 165.581 1092.39 195.254 935.667C224.927 778.942 491.985 624.557 581.005 467.833C670.024 311.109 472 69.5 409 0H848.063V77.1926C848.063 156.724 848.063 311.109 848.063 467.833C848.063 624.557 848.063 778.942 848.063 935.667C848.063 1092.39 848.063 1246.78 848.063 1403.5C848.063 1560.22 848.063 1714.61 848.063 1871.33C848.063 2028.06 848.063 2182.44 848.063 2339.17C848.063 2495.89 848.063 2650.28 848.063 2729.81V2807H409.063Z" fill="#F3CF0E"/>
</svg>
