<svg width="232" height="236" viewBox="0 0 232 236" fill="none" xmlns="http://www.w3.org/2000/svg">
<path d="M106.422 176.52C97.4286 176.52 89.5119 175.38 82.6719 173.1C75.8319 170.693 69.2452 166.513 62.9119 160.56L68.9919 132.06H101.102C101.102 131.933 100.975 132.377 100.722 133.39C100.595 134.403 100.405 135.733 100.152 137.38C100.025 139.027 99.8352 140.863 99.5819 142.89C99.4552 144.917 99.3919 146.88 99.3919 148.78C99.3919 153.973 100.025 157.71 101.292 159.99C102.685 162.143 104.585 163.22 106.992 163.22C109.652 163.22 112.122 162.333 114.402 160.56C116.809 158.787 118.835 156.57 120.482 153.91C122.129 151.25 123.395 148.337 124.282 145.17C125.295 141.877 125.802 138.71 125.802 135.67C125.802 129.843 124.282 125.537 121.242 122.75C118.329 119.837 114.719 118.38 110.412 118.38C110.792 115.973 111.235 113.82 111.742 111.92C112.122 110.273 112.439 108.817 112.692 107.55C113.072 106.157 113.262 105.397 113.262 105.27C117.442 105.27 120.925 104.637 123.712 103.37C126.625 101.977 128.969 100.14 130.742 97.86C132.642 95.4533 133.972 92.6667 134.732 89.5C135.492 86.2067 135.872 82.7233 135.872 79.05C135.872 77.53 135.745 76.01 135.492 74.49C135.365 72.8433 135.049 71.3867 134.542 70.12C134.035 68.7267 133.275 67.65 132.262 66.89C131.375 66.0033 130.109 65.56 128.462 65.56C125.042 65.56 121.685 67.5867 118.392 71.64C115.225 75.6933 112.375 82.5967 109.842 92.35H77.1619L82.8619 65.56C86.6619 63.1533 91.0319 61 95.9719 59.1C100.152 57.4533 105.155 55.9333 110.982 54.54C116.935 53.1467 123.712 52.45 131.312 52.45C136.252 52.45 141.192 52.8933 146.132 53.78C151.072 54.54 155.505 55.9967 159.432 58.15C163.485 60.3033 166.715 63.2167 169.122 66.89C171.655 70.5633 172.922 75.25 172.922 80.95C172.922 85.2567 172.162 89.0567 170.642 92.35C169.249 95.5167 167.159 98.3667 164.372 100.9C161.585 103.433 158.229 105.713 154.302 107.74C150.502 109.767 146.132 111.667 141.192 113.44C144.992 113.82 148.539 114.58 151.832 115.72C155.125 116.86 157.975 118.443 160.382 120.47C162.915 122.497 164.879 124.967 166.272 127.88C167.792 130.793 168.552 134.277 168.552 138.33C168.552 143.777 167.095 148.843 164.182 153.53C161.269 158.217 157.089 162.27 151.642 165.69C146.322 169.11 139.799 171.77 132.072 173.67C124.472 175.57 115.922 176.52 106.422 176.52Z" fill="#EFC912"/>
<path d="M216.962 118C216.962 175.19 171.665 221 116.462 221C61.2585 221 15.9619 175.19 15.9619 118C15.9619 60.8102 61.2585 15 116.462 15C171.665 15 216.962 60.8102 216.962 118Z" stroke="#EFC912" stroke-width="30"/>
</svg>
