<svg width="231" height="236" viewBox="0 0 231 236" fill="none" xmlns="http://www.w3.org/2000/svg">
<path d="M64.6105 156.38C73.3505 153.593 81.8372 150.11 90.0705 145.93C98.3038 141.623 105.65 136.493 112.11 130.54C118.57 124.46 123.7 117.43 127.5 109.45C131.427 101.47 133.39 92.2867 133.39 81.9C133.39 76.8333 132.884 72.9067 131.87 70.12C130.857 67.3333 129.084 65.94 126.55 65.94C124.27 65.94 122.117 67.0167 120.09 69.17C118.19 71.3233 116.417 74.0467 114.77 77.34C113.25 80.6333 111.794 84.3067 110.4 88.36C109.134 92.4133 108.057 96.34 107.17 100.14H72.7805L79.0505 71.64C86.1438 65.56 93.6172 60.8733 101.47 57.58C109.324 54.16 118.19 52.45 128.07 52.45C134.15 52.45 139.85 53.1467 145.17 54.54C150.617 55.9333 155.304 58.15 159.23 61.19C163.284 64.1033 166.45 67.84 168.73 72.4C171.137 76.8333 172.34 82.1533 172.34 88.36C172.34 93.0467 171.517 97.67 169.87 102.23C168.35 106.79 165.564 111.54 161.51 116.48C157.584 121.293 152.2 126.36 145.36 131.68C138.647 136.873 130.097 142.51 119.71 148.59H162.08L158.28 175H60.4305L64.6105 156.38Z" fill="#1F2937"/>
<path d="M216 118C216 175.19 170.704 221 115.5 221C60.2971 221 15.0005 175.19 15.0005 118C15.0005 60.8102 60.2971 15 115.5 15C170.704 15 216 60.8102 216 118Z" stroke="#1F2937" stroke-width="30"/>
</svg>
 