<svg width="232" height="1157" viewBox="0 0 232 1157" fill="none" xmlns="http://www.w3.org/2000/svg">
<path d="M15.668 117L52.0822 809.118C59.2881 946.077 89.3237 1095.39 119.44 1143.95" stroke="#F0CA11" stroke-width="25" stroke-linecap="round"/>
<path d="M106.458 176.52C97.4647 176.52 89.548 175.38 82.708 173.1C75.868 170.693 69.2814 166.513 62.948 160.56L69.028 132.06H101.138C101.138 131.933 101.011 132.377 100.758 133.39C100.631 134.403 100.441 135.733 100.188 137.38C100.061 139.027 99.8714 140.863 99.618 142.89C99.4914 144.917 99.428 146.88 99.428 148.78C99.428 153.973 100.061 157.71 101.328 159.99C102.721 162.143 104.621 163.22 107.028 163.22C109.688 163.22 112.158 162.333 114.438 160.56C116.845 158.787 118.871 156.57 120.518 153.91C122.165 151.25 123.431 148.337 124.318 145.17C125.331 141.877 125.838 138.71 125.838 135.67C125.838 129.843 124.318 125.537 121.278 122.75C118.365 119.837 114.755 118.38 110.448 118.38C110.828 115.973 111.271 113.82 111.778 111.92C112.158 110.273 112.475 108.817 112.728 107.55C113.108 106.157 113.298 105.397 113.298 105.27C117.478 105.27 120.961 104.637 123.748 103.37C126.661 101.977 129.005 100.14 130.778 97.86C132.678 95.4533 134.008 92.6667 134.768 89.5C135.528 86.2067 135.908 82.7233 135.908 79.05C135.908 77.53 135.781 76.01 135.528 74.49C135.401 72.8433 135.085 71.3867 134.578 70.12C134.071 68.7267 133.311 67.65 132.298 66.89C131.411 66.0033 130.145 65.56 128.498 65.56C125.078 65.56 121.721 67.5867 118.428 71.64C115.261 75.6933 112.411 82.5967 109.878 92.35H77.198L82.898 65.56C86.698 63.1533 91.068 61 96.008 59.1C100.188 57.4533 105.191 55.9333 111.018 54.54C116.971 53.1467 123.748 52.45 131.348 52.45C136.288 52.45 141.228 52.8933 146.168 53.78C151.108 54.54 155.541 55.9967 159.468 58.15C163.521 60.3033 166.751 63.2167 169.158 66.89C171.691 70.5633 172.958 75.25 172.958 80.95C172.958 85.2567 172.198 89.0567 170.678 92.35C169.285 95.5167 167.195 98.3667 164.408 100.9C161.621 103.433 158.265 105.713 154.338 107.74C150.538 109.767 146.168 111.667 141.228 113.44C145.028 113.82 148.575 114.58 151.868 115.72C155.161 116.86 158.011 118.443 160.418 120.47C162.951 122.497 164.915 124.967 166.308 127.88C167.828 130.793 168.588 134.277 168.588 138.33C168.588 143.777 167.131 148.843 164.218 153.53C161.305 158.217 157.125 162.27 151.678 165.69C146.358 169.11 139.835 171.77 132.108 173.67C124.508 175.57 115.958 176.52 106.458 176.52Z" fill="#EFC912"/>
<path d="M216.998 118C216.998 175.19 171.701 221 116.498 221C61.2946 221 15.998 175.19 15.998 118C15.998 60.8102 61.2946 15 116.498 15C171.701 15 216.998 60.8102 216.998 118Z" stroke="#EFC912" stroke-width="30"/>
</svg>