<svg width="756" height="236" viewBox="0 0 756 236" fill="none" xmlns="http://www.w3.org/2000/svg">
<path d="M394.17 177H353.13L359.4 146.6H309.81L314.56 124.37L371.18 56.3505H420.2L404.05 130.64H421.34L417.92 146.6H400.63L394.17 177ZM362.82 130.64L374.22 77.8205L332.04 130.64H362.82Z" fill="#EFC912"/>
<path d="M477 118C477 175.19 431.703 221 376.5 221C321.296 221 276 175.19 276 118C276 60.8102 321.296 15 376.5 15C431.703 15 477 60.8102 477 118Z" stroke="#EFC912" stroke-width="30"/>
<rect x="466" y="100" width="290" height="36" rx="18" fill="#EFC912"/>
<rect y="100" width="290" height="36" rx="18" fill="#EFC912"/>
</svg>
