<svg width="306" height="1079" viewBox="0 0 306 1079" fill="none" xmlns="http://www.w3.org/2000/svg">
<path d="M189.959 892.76L186.09 521.061C184.268 345.988 220.59 172.617 292.534 12.9983V12.9983" stroke="#1F2937" stroke-width="25" stroke-linecap="round"/>
<path d="M64.6105 999.38C73.3505 996.593 81.8372 993.11 90.0705 988.93C98.3038 984.623 105.65 979.493 112.11 973.54C118.57 967.46 123.7 960.43 127.5 952.45C131.427 944.47 133.39 935.287 133.39 924.9C133.39 919.833 132.884 915.907 131.87 913.12C130.857 910.333 129.084 908.94 126.55 908.94C124.27 908.94 122.117 910.017 120.09 912.17C118.19 914.323 116.417 917.047 114.77 920.34C113.25 923.633 111.794 927.307 110.4 931.36C109.134 935.413 108.057 939.34 107.17 943.14H72.7805L79.0505 914.64C86.1438 908.56 93.6172 903.873 101.47 900.58C109.324 897.16 118.19 895.45 128.07 895.45C134.15 895.45 139.85 896.147 145.17 897.54C150.617 898.933 155.304 901.15 159.23 904.19C163.284 907.103 166.45 910.84 168.73 915.4C171.137 919.833 172.34 925.153 172.34 931.36C172.34 936.047 171.517 940.67 169.87 945.23C168.35 949.79 165.564 954.54 161.51 959.48C157.584 964.293 152.2 969.36 145.36 974.68C138.647 979.873 130.097 985.51 119.71 991.59H162.08L158.28 1018H60.4305L64.6105 999.38Z" fill="#1F2937"/>
<path d="M216 961C216 1018.19 170.704 1064 115.5 1064C60.2971 1064 15.0005 1018.19 15.0005 961C15.0005 903.81 60.2971 858 115.5 858C170.704 858 216 903.81 216 961Z" stroke="#1F2937" stroke-width="30"/>
</svg>
